<?xml version="1.0" standalone="no"?>
<!DOCTYPE svg PUBLIC "-//W3C//DTD SVG 20010904//EN"
 "http://www.w3.org/TR/2001/REC-SVG-20010904/DTD/svg10.dtd">
<svg version="1.0" xmlns="http://www.w3.org/2000/svg"
 width="512.000000pt" height="512.000000pt" viewBox="0 0 512.000000 512.000000"
 preserveAspectRatio="xMidYMid meet">

<g transform="translate(0.000000,512.000000) scale(0.100000,-0.100000)"
fill="#000000" stroke="none">
<path d="M2330 5110 c-192 -19 -372 -56 -550 -112 -101 -32 -107 -33 -170 -21
-147 28 -348 7 -490 -51 -264 -108 -459 -334 -531 -614 -10 -41 -19 -89 -19
-106 0 -23 -18 -56 -66 -121 -643 -879 -672 -2055 -72 -2947 135 -202 343
-428 533 -580 600 -480 1387 -662 2150 -498 228 50 562 179 584 226 16 35 14
48 -10 78 -28 36 -58 34 -169 -15 -361 -156 -780 -224 -1165 -189 -470 44
-875 200 -1254 483 -123 92 -366 335 -458 458 -196 262 -336 547 -412 841
-165 638 -71 1296 266 1859 l77 130 26 -83 c34 -107 59 -154 107 -200 56 -55
115 -78 199 -78 87 0 155 31 213 96 75 85 90 188 45 315 -21 60 -25 86 -21
140 7 104 42 164 150 255 43 36 48 68 16 108 -27 34 -63 34 -120 -2 -165 -105
-243 -352 -170 -542 26 -69 27 -116 1 -157 -27 -46 -72 -66 -132 -61 -69 7
-99 39 -132 140 -117 352 30 722 353 892 119 62 199 81 346 81 117 0 139 -3
219 -29 100 -33 140 -61 156 -112 17 -51 5 -99 -35 -139 -47 -46 -90 -53 -161
-26 -70 26 -108 27 -134 1 -26 -26 -26 -81 -2 -103 10 -10 52 -29 93 -43 57
-20 86 -25 126 -21 106 11 192 69 241 162 21 41 26 63 25 125 0 84 -16 130
-64 185 -18 20 -30 37 -28 39 7 7 174 45 264 61 228 40 521 44 746 10 110 -17
318 -61 327 -70 3 -3 -6 -18 -20 -33 -101 -108 -97 -291 10 -395 84 -82 207
-104 329 -58 52 20 76 23 140 19 90 -5 143 -28 202 -87 88 -88 112 -211 67
-340 -44 -125 -30 -227 40 -310 56 -65 113 -93 200 -99 166 -11 273 85 330
294 l17 65 47 -73 c356 -561 467 -1246 305 -1888 -142 -564 -495 -1071 -976
-1400 -48 -33 -89 -67 -93 -76 -19 -50 16 -104 68 -104 60 0 310 195 501 391
203 209 338 400 465 661 415 849 326 1855 -234 2628 -55 77 -76 113 -76 136 0
43 -33 169 -65 245 -62 147 -199 311 -337 399 -177 115 -433 166 -638 127 -63
-12 -68 -12 -170 21 -124 40 -275 75 -420 97 -124 18 -469 27 -590 15z m1525
-295 c352 -93 590 -439 546 -792 -14 -112 -56 -234 -92 -269 -58 -55 -167 -41
-209 29 -26 41 -25 88 1 157 27 70 36 190 19 261 -65 277 -340 425 -616 333
-82 -27 -83 -27 -128 -10 -73 28 -109 100 -86 169 14 45 44 71 110 97 129 51
319 62 455 25z"/>
<path d="M1735 2940 c-77 -40 -80 -48 -83 -282 -3 -230 0 -245 61 -292 49 -37
102 -42 156 -14 83 43 86 51 89 286 3 203 3 208 -20 241 -51 76 -130 99 -203
61z"/>
<path d="M3245 2936 c-68 -42 -78 -70 -83 -233 -3 -78 -1 -172 3 -210 6 -62
11 -71 49 -109 53 -53 105 -64 169 -36 24 11 55 35 68 53 24 33 24 38 24 246
0 198 -1 213 -21 239 -54 73 -139 94 -209 50z"/>
<path d="M2479 2295 c-25 -8 -66 -33 -91 -55 -144 -126 -116 -354 54 -441 21
-11 38 -24 38 -29 0 -22 -43 -100 -76 -138 -19 -23 -60 -53 -92 -69 -48 -24
-70 -28 -137 -28 -67 0 -89 4 -137 28 -96 47 -161 142 -174 254 -12 95 -75
133 -129 78 -30 -29 -32 -73 -10 -160 56 -212 241 -355 461 -355 48 0 61 -4
97 -34 165 -133 377 -137 546 -10 54 40 63 44 118 44 110 0 227 44 312 117 84
71 149 207 152 318 2 52 -1 61 -25 82 -59 50 -110 13 -126 -91 -18 -114 -72
-190 -173 -243 -71 -37 -187 -39 -262 -5 -63 29 -120 83 -151 144 -31 61 -30
74 6 93 195 101 202 375 12 478 -62 34 -148 43 -213 22z m189 -817 c23 -18 42
-35 42 -39 0 -15 -98 -44 -150 -44 -52 0 -150 29 -150 44 0 4 13 14 29 24 16
9 51 41 78 70 l48 53 30 -37 c17 -21 49 -53 73 -71z"/>
</g>
</svg>
